<?xml version="1.0" encoding="utf-8"?>
<svg xmlns="http://www.w3.org/2000/svg" viewBox="0 0 500 500" xmlns:bx="https://boxy-svg.com">
  <defs>
    <bx:export>
      <bx:file format="png"/>
    </bx:export>
  </defs>
  <path d="M 368.977 16.562 L 368.98 16.562 C 456.521 8.452 492.846 -2.367 492.199 40.382 C 491.974 55.23 490.823 237.753 490.24 256.983 C 488.439 316.39 429.374 307.876 376.052 298.682 C 379.557 286.872 381.48 274.489 381.48 262 C 381.48 226.627 366.049 192.109 342.97 169.03 C 322.701 148.76 293.606 134.389 262.858 131.192 C 276.451 25.876 285.437 30.193 368.977 16.562 Z M 482.252 379.695 C 484.628 420.405 490.298 474.592 455.002 481.797 C 426.382 487.639 269.782 531.66 263.16 409.843 C 262.797 403.167 262.263 397.59 261.615 392.931 C 292.82 389.996 322.427 375.513 342.97 354.97 C 355.068 342.872 365.065 327.631 371.839 310.77 C 403.6 343.71 477.823 303.784 482.252 379.695 Z M 236.873 409.843 C 230.251 531.66 73.651 487.639 45.031 481.797 C 9.735 474.592 15.405 420.405 17.781 379.695 C 22.209 303.803 96.397 343.69 128.171 310.794 C 134.945 327.645 144.937 342.878 157.03 354.97 C 177.579 375.52 207.2 390.007 238.417 392.934 C 237.769 397.592 237.235 403.168 236.873 409.843 Z M 9.793 256.983 C 9.21 237.753 8.059 55.23 7.834 40.382 C 7.187 -2.367 43.512 8.452 131.053 16.562 L 131.056 16.562 C 214.595 30.192 223.582 25.876 237.175 131.188 C 206.415 134.379 177.308 148.752 157.03 169.03 C 133.951 192.108 118.52 226.627 118.52 262 C 118.52 274.491 120.444 286.876 123.95 298.688 C 70.635 307.88 11.594 316.379 9.793 256.983 Z M 399.268 70.208 C 376.561 70.208 358.153 88.616 358.153 111.323 C 358.153 134.03 376.561 152.438 399.268 152.438 C 421.975 152.438 440.383 134.03 440.383 111.323 C 440.383 88.616 421.975 70.208 399.268 70.208 Z M 355.48 262 C 355.48 292.062 344.388 316.784 324.586 336.586 C 304.783 356.388 280.061 367.48 250 367.48 C 219.938 367.48 195.216 356.388 175.414 336.586 C 155.612 316.783 144.52 292.061 144.52 262 C 144.52 231.938 155.612 207.216 175.414 187.414 C 195.217 167.612 219.939 156.52 250 156.52 C 280.062 156.52 304.784 167.612 324.586 187.414 C 344.388 207.217 355.48 231.939 355.48 262 Z" style="fill: rgb(0, 109, 225);"/>
  <ellipse style="fill: none; stroke-width: 26px;" cx="250" cy="262" rx="118.48" ry="118.48"/>
</svg>