<?xml version="1.0" encoding="utf-8"?>
<svg xmlns="http://www.w3.org/2000/svg" viewBox="0 0 500 500" xmlns:bx="https://boxy-svg.com">
  <defs>
    <bx:export>
      <bx:file format="png"/>
    </bx:export>
  </defs>
  <g style="" transform="matrix(1.008657, 0, 0, 1.008657, -2.182394, -3.865581)">
    <path d="M 446.739 6.879 C 452.521 7.35 459.581 8.672 464.707 10.52 C 470.293 12.534 477.785 17.122 482.029 21.537 C 486.266 25.944 490.705 33.868 492.464 39.899 C 494.051 45.339 494.808 53.038 494.805 59.406 C 494.602 72.838 493.548 239.424 493.012 257.242 C 491.825 274.68 485.698 292.512 476.796 302.474 C 472.871 306.866 467.768 310.709 462.225 313.864 C 463.057 314.535 463.866 315.23 464.648 315.951 C 470.179 321.05 476.379 329.834 479.702 338.074 C 482.765 345.67 484.95 356.526 485.7 366.99 C 486.76 385.232 488.793 409.242 485.973 429.667 C 484.507 440.287 480.678 453.427 474.754 462.498 C 471.638 467.269 466.048 473.279 461.048 476.775 C 456.147 480.202 448.092 483.418 441.698 484.986 C 429.371 487.479 383.741 499.744 340.011 496.239 C 317.95 494.47 291.551 487.208 273.168 472.428 C 264.695 465.616 255.875 455.154 250.018 444.109 C 244.161 455.154 235.341 465.616 226.868 472.428 C 208.485 487.209 182.085 494.471 160.025 496.239 C 116.294 499.745 70.664 487.479 58.337 484.986 C 51.943 483.418 43.888 480.202 38.988 476.775 C 33.989 473.278 28.398 467.268 25.282 462.498 C 19.358 453.426 15.529 440.286 14.063 429.667 C 11.243 409.241 13.275 385.232 14.336 366.99 C 15.086 356.528 17.27 345.675 20.332 338.08 C 23.654 329.841 29.85 321.059 35.379 315.959 C 36.164 315.235 36.976 314.537 37.811 313.864 C 32.265 310.707 27.16 306.861 23.234 302.467 C 14.335 292.505 8.211 274.675 7.024 257.241 C 6.488 239.422 5.434 72.84 5.231 59.408 C 5.228 53.04 5.986 45.339 7.572 39.899 C 9.331 33.868 13.77 25.944 18.007 21.537 C 22.251 17.122 29.743 12.534 35.329 10.52 C 40.455 8.672 47.515 7.35 53.297 6.879 C 74.24 5.173 102.365 9.719 141.563 13.33 L 143.513 13.33 L 145.431 13.643 C 164.213 16.71 179.961 18.926 192.817 22.097 C 206.39 25.444 220.86 31.71 230.458 40.908 C 238.671 48.778 245.522 61.06 250.02 74.498 C 254.518 61.061 261.369 48.78 269.581 40.909 C 279.179 31.711 293.649 25.445 307.222 22.097 C 320.078 18.926 335.827 16.71 354.609 13.643 L 356.527 13.33 L 357.369 13.33 C 396.032 9.735 425.998 5.189 446.743 6.879 Z" style="stroke-width: 48px; fill: rgb(255, 255, 255);"/>
    <path d="M 358.47 37.33 L 358.473 37.33 C 438.281 29.936 471.398 20.072 470.808 59.045 C 470.604 72.582 469.554 238.984 469.023 256.515 C 467.38 310.675 413.533 302.914 364.92 294.531 C 368.115 283.765 369.869 272.476 369.869 261.089 C 369.869 228.84 355.801 197.371 334.76 176.33 C 316.281 157.851 289.756 144.749 261.724 141.835 C 274.117 45.82 282.309 49.756 358.47 37.33 Z M 461.74 368.389 C 463.906 405.503 469.075 454.904 436.897 461.473 C 410.805 466.799 268.036 506.932 262 395.874 C 261.669 389.787 261.182 384.703 260.59 380.456 C 289.039 377.78 316.031 364.576 334.76 345.848 C 345.789 334.819 354.903 320.923 361.079 305.552 C 390.035 335.583 457.702 299.182 461.74 368.389 Z M 238.033 395.874 C 231.997 506.932 89.228 466.799 63.136 461.473 C 30.958 454.904 36.127 405.503 38.293 368.389 C 42.33 299.2 109.966 335.564 138.933 305.574 C 145.109 320.936 154.218 334.824 165.243 345.848 C 183.977 364.583 210.982 377.79 239.442 380.459 C 238.85 384.705 238.364 389.788 238.033 395.874 Z M 31.01 256.515 C 30.479 238.984 29.429 72.582 29.225 59.045 C 28.635 20.072 61.752 29.936 141.56 37.33 L 141.563 37.33 C 217.723 49.755 225.916 45.82 238.309 141.831 C 210.266 144.741 183.729 157.843 165.243 176.33 C 144.203 197.37 130.135 228.84 130.135 261.089 C 130.135 272.477 131.888 283.768 135.084 294.537 C 86.479 302.917 32.653 310.665 31.01 256.515 Z M 386.086 86.237 C 365.385 86.237 348.602 103.019 348.602 123.72 C 348.602 144.422 365.385 161.204 386.086 161.204 C 406.787 161.204 423.569 144.422 423.569 123.72 C 423.569 103.019 406.787 86.237 386.086 86.237 Z M 346.165 261.089 C 346.165 288.496 336.053 311.034 317.999 329.087 C 299.945 347.141 277.407 357.253 250.001 357.253 C 222.594 357.253 200.056 347.141 182.003 329.087 C 163.95 311.033 153.837 288.495 153.837 261.089 C 153.837 233.682 163.95 211.144 182.003 193.091 C 200.057 175.038 222.595 164.925 250.001 164.925 C 277.408 164.925 299.946 175.038 317.999 193.091 C 336.053 211.145 346.165 233.683 346.165 261.089 Z" style="fill: rgb(0, 109, 225);"/>
    <path style="stroke: rgb(255, 255, 255); stroke-linecap: round; stroke-linejoin: round; stroke-width: 6.93992px; paint-order: stroke; fill: rgb(255, 255, 255);" d="M 182.402 257.688 L 234.986 195.544 C 206.044 202.102 184.137 227.196 182.402 257.688"/>
  </g>
  <ellipse style="fill: none; stroke-width: 26px;" cx="250" cy="262" rx="118.48" ry="118.48"/>
  <path d="M 449.224 132.878 C 449.224 149.051 442.811 163.789 432.511 174.386 C 422.21 184.984 407.874 191.586 392.146 191.586 C 376.418 191.586 362.082 184.984 351.781 174.386 C 341.481 163.789 335.068 149.052 335.068 132.878 C 335.068 116.705 341.481 101.967 351.781 91.37 C 362.082 80.772 376.418 74.17 392.146 74.17 C 407.874 74.17 422.21 80.772 432.511 91.37 C 442.811 101.967 449.224 116.704 449.224 132.878 Z M 431.794 92.067 C 421.618 81.598 407.665 75.17 392.146 75.17 C 376.627 75.17 362.674 81.598 352.498 92.067 C 342.321 102.537 336.068 116.904 336.068 132.878 C 336.068 148.852 342.321 163.218 352.498 173.689 C 362.674 184.158 376.627 190.586 392.146 190.586 C 407.665 190.586 421.618 184.158 431.794 173.689 C 441.971 163.219 448.224 148.852 448.224 132.878 C 448.224 116.904 441.971 102.538 431.794 92.067 Z" style="fill: none;"/>
</svg>